<?xml version="1.0" encoding="UTF-8" standalone="no"?>
<svg
   xmlns:dc="http://purl.org/dc/elements/1.1/"
   xmlns:cc="http://creativecommons.org/ns#"
   xmlns:rdf="http://www.w3.org/1999/02/22-rdf-syntax-ns#"
   xmlns:svg="http://www.w3.org/2000/svg"
   xmlns="http://www.w3.org/2000/svg"
   xmlns:sodipodi="http://sodipodi.sourceforge.net/DTD/sodipodi-0.dtd"
   xmlns:inkscape="http://www.inkscape.org/namespaces/inkscape"
   version="1.1"
   width="500"
   height="500"
   style="clip-rule:evenodd;fill-rule:evenodd;image-rendering:optimizeQuality;shape-rendering:geometricPrecision;text-rendering:geometricPrecision"
   id="svg3336"
   inkscape:version="0.91 r13725"
   sodipodi:docname="facebook.svg">
  <metadata
     id="metadata3710">
    <rdf:RDF>
      <cc:Work
         rdf:about="">
        <dc:format>image/svg+xml</dc:format>
        <dc:type
           rdf:resource="http://purl.org/dc/dcmitype/StillImage" />
        <dc:title></dc:title>
      </cc:Work>
    </rdf:RDF>
  </metadata>
  <defs
     id="defs3708" />
  <sodipodi:namedview
     pagecolor="#ffffff"
     bordercolor="#666666"
     borderopacity="1"
     objecttolerance="10"
     gridtolerance="10"
     guidetolerance="10"
     inkscape:pageopacity="0"
     inkscape:pageshadow="2"
     inkscape:window-width="1459"
     inkscape:window-height="951"
     id="namedview3706"
     showgrid="false"
     inkscape:zoom="0.76838936"
     inkscape:cx="88.574431"
     inkscape:cy="260.67309"
     inkscape:window-x="39"
     inkscape:window-y="26"
     inkscape:window-maximized="0"
     inkscape:current-layer="svg3336" />
  <g
     inkscape:groupmode="layer"
     id="layer1"
     inkscape:label="Layer 1"
     style="display:inline"
     transform="translate(0,-160)">
    <g
       style="clip-rule:evenodd;fill-rule:evenodd;image-rendering:optimizeQuality;shape-rendering:geometricPrecision;text-rendering:geometricPrecision"
       id="g3402"
       transform="matrix(2.4761839,0,0,2.4761839,2.3390919,159.36657)">
      <path
         style="opacity:1;fill:#2b3990"
         d="m -0.5,109.5 c 0,-7.333 0,-14.6667 0,-22 9.94976,-48.4491 39.2831,-77.2824 88,-86.5 50.64,-2.93853 86.473,18.5615 107.5,64.5 12.005,39.006 5.005,74.006 -21,105 C 137.574,204.098 96.7411,210.598 51.5,190 20.9546,171.636 3.6213,144.803 -0.5,109.5 Z"
         id="path3404"
         inkscape:connector-curvature="0" />
    </g>
    <g
       style="clip-rule:evenodd;fill-rule:evenodd;image-rendering:optimizeQuality;shape-rendering:geometricPrecision;text-rendering:geometricPrecision"
       id="g3406"
       transform="matrix(2.4761839,0,0,2.4761839,2.3390919,159.36657)">
      <path
         style="opacity:1;fill:#c8cce3"
         d="m 84.5,92.5 c 0.9973,21.494 1.3307,43.16 1,65 6.6667,0 13.3333,0 20,0 -0.331,-21.84 0.003,-43.506 1,-65 0,22 0,44 0,66 -7.3333,0 -14.6667,0 -22,0 0,-22 0,-44 0,-66 z"
         id="path3408"
         inkscape:connector-curvature="0" />
    </g>
    <g
       style="clip-rule:evenodd;fill-rule:evenodd;image-rendering:optimizeQuality;shape-rendering:geometricPrecision;text-rendering:geometricPrecision"
       id="g3410"
       transform="matrix(2.4761839,0,0,2.4761839,2.3390919,159.36657)">
      <path
         style="opacity:1;fill:#bdc4df"
         d="m 84.5,78.5 c -3.1248,0.9794 -6.4581,1.3128 -10,1 0,4 0,8 0,12 3.5419,-0.3128 6.8752,0.0206 10,1 -3.6667,0 -7.3333,0 -11,0 0,-4.6667 0,-9.3333 0,-14 3.6667,0 7.3333,0 11,0 z"
         id="path3412"
         inkscape:connector-curvature="0" />
    </g>
    <g
       style="clip-rule:evenodd;fill-rule:evenodd;image-rendering:optimizeQuality;shape-rendering:geometricPrecision;text-rendering:geometricPrecision"
       id="g3414"
       transform="matrix(2.4761839,0,0,2.4761839,2.3390919,159.36657)">
      <path
         style="opacity:1;fill:#bec3de"
         d="m 106.5,78.5 c 6.667,0 13.333,0 20,0 0,4.6667 0,9.3333 0,14 -6.667,0 -13.333,0 -20,0 6.145,-0.9902 12.478,-1.3235 19,-1 0,-4 0,-8 0,-12 -6.522,0.3235 -12.855,-0.0098 -19,-1 z"
         id="path3416"
         inkscape:connector-curvature="0" />
    </g>
    <g
       style="clip-rule:evenodd;fill-rule:evenodd;image-rendering:optimizeQuality;shape-rendering:geometricPrecision;text-rendering:geometricPrecision"
       id="g3418"
       transform="matrix(2.4761839,0,0,2.4761839,2.3390919,159.36657)">
      <path
         style="opacity:1;fill:#fcfcfd"
         d="m 106.5,78.5 c 6.145,0.9902 12.478,1.3235 19,1 0,4 0,8 0,12 -6.522,-0.3235 -12.855,0.0098 -19,1 -0.997,21.494 -1.331,43.16 -1,65 -6.6667,0 -13.3333,0 -20,0 0.3307,-21.84 -0.0027,-43.506 -1,-65 -3.1248,-0.9794 -6.4581,-1.3128 -10,-1 0,-4 0,-8 0,-12 3.5419,0.3128 6.8752,-0.0206 10,-1 -2.4067,-13.9364 1.9266,-25.1031 13,-33.5 5.308,-1.969 10.808,-2.8024 16.5,-2.5 6.591,-0.0443 13.091,0.6224 19.5,2 0,5 0,10 0,15 -5.275,-1.5355 -10.608,-2.8688 -16,-4 -5.347,0.1739 -8.847,2.8406 -10.5,8 -0.499,4.9889 -0.666,9.9889 -0.5,15 z"
         id="path3420"
         inkscape:connector-curvature="0" />
    </g>
  </g>
  <path
     style="opacity:1;fill:#2b3990;fill-opacity:1;stroke:none;stroke-width:0.2;stroke-linecap:butt;stroke-linejoin:round;stroke-miterlimit:4;stroke-dasharray:none;stroke-dashoffset:0;stroke-opacity:1"
     d="m 271.95027,227.57383 c 8.90127,-1.30305 16.0358,-1.74091 28.70071,-1.76141 l 12.38646,-0.0198 8e-5,-14.70296 7e-5,-14.70294 -12.58795,-0.0322 c -12.44753,-0.0317 -21.14775,-0.60402 -29.70784,-1.95388 -3.08117,-0.48588 -1.01422,-0.54456 20.64456,-0.58611 l 24.06853,-0.0461 0,17.32128 0,17.32127 -24.26994,-0.0498 -24.26995,-0.0498 5.03527,-0.73708 z"
     id="path6567"
     inkscape:connector-curvature="0" />
  <path
     style="opacity:1;fill:#2b3990;fill-opacity:1;stroke:none;stroke-width:0.2;stroke-linecap:butt;stroke-linejoin:round;stroke-miterlimit:4;stroke-dasharray:none;stroke-dashoffset:0;stroke-opacity:1"
     d="m 190.88264,196.29088 c 1.16315,-0.0815 3.06648,-0.0815 4.22962,0 1.16314,0.0815 0.21149,0.14808 -2.11481,0.14808 -2.32629,0 -3.27795,-0.0666 -2.11481,-0.14808 z"
     id="path6569"
     inkscape:connector-curvature="0" />
  <path
     style="opacity:1;fill:#2b3990;fill-opacity:1;stroke:none;stroke-width:0.2;stroke-linecap:butt;stroke-linejoin:round;stroke-miterlimit:4;stroke-dasharray:none;stroke-dashoffset:0;stroke-opacity:1"
     d="m 184.53822,211.08937 0,-17.32127 12.99096,0.0124 c 8.99881,0.007 12.77496,0.13817 12.28806,0.42172 -0.3866,0.22508 -1.20231,0.48285 -1.8127,0.57256 -0.61038,0.0896 -1.56295,0.26892 -2.11683,0.3982 -3.63932,0.8495 -6.30927,1.07788 -12.99096,1.11121 l -6.34443,0.0317 0,14.75204 0,14.75201 5.94161,0.0173 c 6.96525,0.0198 10.89121,0.41677 15.40788,1.55529 0.55388,0.13966 1.45614,0.3462 2.00503,0.45909 0.54889,0.11291 1.07759,0.28488 1.17489,0.38217 0.0973,0.0973 -5.83518,0.1768 -13.18329,0.1768 l -13.36022,0 0,-17.32128 z"
     id="path6571"
     inkscape:connector-curvature="0" />
</svg>
