<?xml version="1.0" encoding="UTF-8" standalone="no"?>
<svg
   xmlns:dc="http://purl.org/dc/elements/1.1/"
   xmlns:cc="http://creativecommons.org/ns#"
   xmlns:rdf="http://www.w3.org/1999/02/22-rdf-syntax-ns#"
   xmlns:svg="http://www.w3.org/2000/svg"
   xmlns="http://www.w3.org/2000/svg"
   xmlns:sodipodi="http://sodipodi.sourceforge.net/DTD/sodipodi-0.dtd"
   xmlns:inkscape="http://www.inkscape.org/namespaces/inkscape"
   version="1.1"
   width="500"
   height="500"
   style="clip-rule:evenodd;fill-rule:evenodd;image-rendering:optimizeQuality;shape-rendering:geometricPrecision;text-rendering:geometricPrecision"
   id="svg3336"
   inkscape:version="0.91 r13725"
   sodipodi:docname="instagram.svg">
  <metadata
     id="metadata3710">
    <rdf:RDF>
      <cc:Work
         rdf:about="">
        <dc:format>image/svg+xml</dc:format>
        <dc:type
           rdf:resource="http://purl.org/dc/dcmitype/StillImage" />
        <dc:title></dc:title>
      </cc:Work>
    </rdf:RDF>
  </metadata>
  <defs
     id="defs3708" />
  <sodipodi:namedview
     pagecolor="#ffffff"
     bordercolor="#666666"
     borderopacity="1"
     objecttolerance="10"
     gridtolerance="10"
     guidetolerance="10"
     inkscape:pageopacity="0"
     inkscape:pageshadow="2"
     inkscape:window-width="1459"
     inkscape:window-height="951"
     id="namedview3706"
     showgrid="false"
     inkscape:zoom="1.0866667"
     inkscape:cx="170.3771"
     inkscape:cy="196.51597"
     inkscape:window-x="39"
     inkscape:window-y="26"
     inkscape:window-maximized="0"
     inkscape:current-layer="layer6" />
  <g
     inkscape:groupmode="layer"
     id="layer6"
     inkscape:label="Layer 6"
     style="display:inline"
     transform="translate(0,-160)">
    <g
       style="clip-rule:evenodd;fill-rule:evenodd;image-rendering:optimizeQuality;shape-rendering:geometricPrecision;text-rendering:geometricPrecision"
       id="g3466"
       transform="matrix(2.4723841,0,0,2.4723841,-549.26557,-384.1711)">
      <path
         style="opacity:1;fill:#1d74bc"
         d="m 403.5,259.5 c 17.434,23.884 23.767,50.55 19,80 -3.026,13.404 -8.026,26.071 -15,38 -8.819,11.574 -19.152,21.574 -31,30 -11.629,6.313 -23.962,10.647 -37,13 -9.318,0.683 -18.651,1.017 -28,1 -15.138,-1.546 -29.138,-6.379 -42,-14.5 -34.517,-24.542 -50.017,-58.042 -46.5,-100.5 9.748,-46.748 37.915,-75.248 84.5,-85.5 38.671,-3.505 70.671,9.329 96,38.5 z"
         id="path3468"
         inkscape:connector-curvature="0" />
    </g>
    <g
       style="clip-rule:evenodd;fill-rule:evenodd;image-rendering:optimizeQuality;shape-rendering:geometricPrecision;text-rendering:geometricPrecision"
       id="g3470"
       transform="matrix(2.4723841,0,0,2.4723841,-549.26557,-384.1711)">
      <path
         style="opacity:1;fill:#f7fafb"
         d="m 275.5,256.5 c 4.014,-0.166 8.014,10e-4 12,0.5 7.923,7.3 7.923,14.634 0,22 -8.355,3.406 -14.188,0.906 -17.5,-7.5 -0.667,-2.667 -0.667,-5.333 0,-8 1.666,-2.496 3.5,-4.829 5.5,-7 z"
         id="path3472"
         inkscape:connector-curvature="0" />
    </g>
    <g
       style="clip-rule:evenodd;fill-rule:evenodd;image-rendering:optimizeQuality;shape-rendering:geometricPrecision;text-rendering:geometricPrecision"
       id="g3482"
       transform="matrix(2.4723841,0,0,2.4723841,-549.26557,-384.1711)">
      <path
         style="opacity:1;fill:#a4c7e3"
         d="m 361.5,286.5 c -5.992,-1.274 -11.992,-1.274 -18,0 0.418,-0.722 1.084,-1.222 2,-1.5 4.667,-0.667 9.333,-0.667 14,0 0.916,0.278 1.582,0.778 2,1.5 z"
         id="path3484"
         inkscape:connector-curvature="0" />
    </g>
    <g
       style="clip-rule:evenodd;fill-rule:evenodd;image-rendering:optimizeQuality;shape-rendering:geometricPrecision;text-rendering:geometricPrecision"
       id="g3490"
       transform="matrix(2.4723841,0,0,2.4723841,-549.26557,-384.1711)">
      <path
         style="opacity:1;fill:#fafcfd"
         d="m 361.5,286.5 c 10.669,3.506 16.836,10.839 18.5,22 0.5,16.997 0.667,33.997 0.5,51 -7,0 -14,0 -21,0 0.167,-16.003 0,-32.003 -0.5,-48 -3.256,-9.704 -9.756,-12.537 -19.5,-8.5 -2.511,2.179 -4.678,4.679 -6.5,7.5 -0.5,16.33 -0.667,32.663 -0.5,49 -7,0 -14,0 -21,0 0,-24.333 0,-48.667 0,-73 6.667,0 13.333,0 20,0 -0.308,2.424 0.026,4.757 1,7 0.607,-0.124 0.94,-0.457 1,-1 2.661,-3.002 5.995,-5.002 10,-6 6.008,-1.274 12.008,-1.274 18,0 z"
         id="path3492"
         inkscape:connector-curvature="0" />
    </g>
    <g
       style="clip-rule:evenodd;fill-rule:evenodd;image-rendering:optimizeQuality;shape-rendering:geometricPrecision;text-rendering:geometricPrecision"
       id="g3494"
       transform="matrix(2.4723841,0,0,2.4723841,-549.26557,-384.1711)">
      <path
         style="opacity:1;fill:#72a9d5"
         d="m 291.5,359.5 c 0,-24.333 0,-48.667 0,-73 -6.667,0 -13.333,0 -20,0 0,24.333 0,48.667 0,73 -0.998,-24.494 -1.331,-49.161 -1,-74 7.333,0 14.667,0 22,0 0.331,24.839 -0.002,49.506 -1,74 z"
         id="path3496"
         inkscape:connector-curvature="0" />
    </g>
    <g
       style="clip-rule:evenodd;fill-rule:evenodd;image-rendering:optimizeQuality;shape-rendering:geometricPrecision;text-rendering:geometricPrecision"
       id="g3498"
       transform="matrix(2.4723841,0,0,2.4723841,-549.26557,-384.1711)">
      <path
         style="opacity:1;fill:#fdfefe"
         d="m 291.5,359.5 c -6.667,0 -13.333,0 -20,0 0,-24.333 0,-48.667 0,-73 6.667,0 13.333,0 20,0 0,24.333 0,48.667 0,73 z"
         id="path3500"
         inkscape:connector-curvature="0" />
    </g>
    <g
       style="clip-rule:evenodd;fill-rule:evenodd;image-rendering:optimizeQuality;shape-rendering:geometricPrecision;text-rendering:geometricPrecision"
       id="g3510"
       transform="matrix(2.4723841,0,0,2.4723841,-549.26557,-384.1711)">
      <path
         style="opacity:1;fill:#81b1d9"
         d="m 333.5,292.5 c -0.06,0.543 -0.393,0.876 -1,1 -0.974,-2.243 -1.308,-4.576 -1,-7 -6.667,0 -13.333,0 -20,0 0,24.333 0,48.667 0,73 -0.998,-24.494 -1.331,-49.161 -1,-74 7.333,0 14.667,0 22,0 -0.302,2.559 0.032,4.893 1,7 z"
         id="path3512"
         inkscape:connector-curvature="0" />
    </g>
    <g
       style="clip-rule:evenodd;fill-rule:evenodd;image-rendering:optimizeQuality;shape-rendering:geometricPrecision;text-rendering:geometricPrecision"
       id="g3570"
       transform="matrix(2.4723841,0,0,2.4723841,-549.26557,-384.1711)">
      <path
         style="opacity:1;fill:#73a7d3"
         d="m 339.5,420.5 c 0,0.333 0,0.667 0,1 -9.493,1.083 -18.827,1.083 -28,0 9.349,0.017 18.682,-0.317 28,-1 z"
         id="path3572"
         inkscape:connector-curvature="0" />
    </g>
    <path
       style="opacity:1;fill:#1d74bc;fill-opacity:1;stroke:none;stroke-width:0.2;stroke-linecap:butt;stroke-linejoin:round;stroke-miterlimit:4;stroke-dasharray:none;stroke-dashoffset:0;stroke-opacity:1"
       d="m 121.64216,493.11415 c -0.93222,-26.26873 -1.48551,-47.16948 -1.92357,-72.66421 -0.30629,-17.82549 -0.38203,-93.74423 -0.0965,-96.7671 l 0.1813,-1.9197 26.93159,0 26.93158,0 0.18679,6.1857 c 0.28366,9.39343 0.22037,67.53346 -0.0957,87.95071 -0.4135,26.708 -1.24353,58.8324 -1.97302,76.36141 -0.11717,2.81555 -0.2332,-33.88272 -0.25785,-81.55172 l -0.0448,-86.6709 -24.74235,0 -24.74234,0 -0.0716,87.5241 c -0.0394,48.13826 -0.16694,84.83652 -0.28351,81.55171 z"
       id="path5745"
       inkscape:connector-curvature="0" />
    <path
       style="opacity:1;fill:#1d74bc;fill-opacity:1;stroke:none;stroke-width:0.2;stroke-linecap:butt;stroke-linejoin:round;stroke-miterlimit:4;stroke-dasharray:none;stroke-dashoffset:0;stroke-opacity:1"
       d="m 220.46558,490.69676 c -1.71332,-46.73138 -2.52194,-99.42408 -2.18983,-142.69772 l 0.20135,-26.2359 27.05451,2.5e-4 27.0545,2.5e-4 0.0173,4.47905 c 0.0198,4.8486 0.50268,7.60208 1.98898,11.31728 0.57471,1.43652 0.66169,1.93652 0.41652,2.3946 -0.40841,0.76312 -1.60702,1.53325 -2.0949,1.34603 -0.47081,-0.18066 -1.73831,-4.07044 -2.32008,-7.11998 -0.25021,-1.31157 -0.42525,-3.85772 -0.42525,-6.1857 l 0,-3.95658 -24.60015,0 -24.60014,0 -0.0716,88.23511 c -0.0624,76.98505 -0.11742,86.98408 -0.43129,78.42331 z"
       id="path5747"
       inkscape:connector-curvature="0" />
    <path
       style="opacity:1;fill:#1d74bc;fill-opacity:1;stroke:none;stroke-width:0.2;stroke-linecap:butt;stroke-linejoin:round;stroke-miterlimit:4;stroke-dasharray:none;stroke-dashoffset:0;stroke-opacity:1"
       d="m 300.5783,323.5092 c 0.78616,-1.469 3.19543,-2.72786 5.99362,-3.13174 11.23763,-1.62198 30.6878,-1.08246 34.69398,0.96237 1.27016,0.64832 3.07424,2.2815 2.81098,2.54474 -0.0752,0.0751 -1.60154,-0.11942 -3.39206,-0.4323 -6.55528,-1.14544 -10.70357,-1.48447 -18.3287,-1.49794 -8.15489,-0.0143 -14.51903,0.57567 -21.28394,1.97343 -0.74389,0.15371 -0.78261,0.1209 -0.49388,-0.41856 z"
       id="path5749"
       inkscape:connector-curvature="0" />
  </g>
</svg>
