<?xml version="1.0" encoding="UTF-8" standalone="no"?>
<svg
   xmlns:dc="http://purl.org/dc/elements/1.1/"
   xmlns:cc="http://creativecommons.org/ns#"
   xmlns:rdf="http://www.w3.org/1999/02/22-rdf-syntax-ns#"
   xmlns:svg="http://www.w3.org/2000/svg"
   xmlns="http://www.w3.org/2000/svg"
   xmlns:sodipodi="http://sodipodi.sourceforge.net/DTD/sodipodi-0.dtd"
   xmlns:inkscape="http://www.inkscape.org/namespaces/inkscape"
   version="1.1"
   width="500"
   height="500"
   style="clip-rule:evenodd;fill-rule:evenodd;image-rendering:optimizeQuality;shape-rendering:geometricPrecision;text-rendering:geometricPrecision"
   id="svg3336"
   inkscape:version="0.91 r13725"
   sodipodi:docname="mail.svg">
  <metadata
     id="metadata3710">
    <rdf:RDF>
      <cc:Work
         rdf:about="">
        <dc:format>image/svg+xml</dc:format>
        <dc:type
           rdf:resource="http://purl.org/dc/dcmitype/StillImage" />
        <dc:title></dc:title>
      </cc:Work>
    </rdf:RDF>
  </metadata>
  <defs
     id="defs3708" />
  <sodipodi:namedview
     pagecolor="#ffffff"
     bordercolor="#666666"
     borderopacity="1"
     objecttolerance="10"
     gridtolerance="10"
     guidetolerance="10"
     inkscape:pageopacity="0"
     inkscape:pageshadow="2"
     inkscape:window-width="1459"
     inkscape:window-height="951"
     id="namedview3706"
     showgrid="false"
     inkscape:zoom="1.0866667"
     inkscape:cx="196.09569"
     inkscape:cy="178.34819"
     inkscape:window-x="39"
     inkscape:window-y="26"
     inkscape:window-maximized="0"
     inkscape:current-layer="layer12" />
  <g
     inkscape:groupmode="layer"
     id="layer12"
     inkscape:label="Layer 12"
     style="display:inline"
     transform="translate(0,-160)">
    <g
       style="clip-rule:evenodd;fill-rule:evenodd;image-rendering:optimizeQuality;shape-rendering:geometricPrecision;text-rendering:geometricPrecision"
       id="g3582"
       transform="matrix(2.4709498,0,0,2.4709498,-1680.1248,-961.50882)">
      <path
         style="opacity:1;fill:#f8ec32"
         d="m 775.5,454.5 c 22.341,-0.766 43.008,4.734 62,16.5 43.376,33.991 55.043,76.824 35,128.5 -12.217,22.216 -29.884,38.55 -53,49 -39.357,14.129 -75.024,7.963 -107,-18.5 -36.387,-39.107 -42.054,-82.274 -17,-129.5 19.082,-28.217 45.749,-43.55 80,-46 z"
         id="path3584"
         inkscape:connector-curvature="0" />
    </g>
    <g
       style="clip-rule:evenodd;fill-rule:evenodd;image-rendering:optimizeQuality;shape-rendering:geometricPrecision;text-rendering:geometricPrecision"
       id="g3606"
       transform="matrix(2.4709498,0,0,2.4709498,-1680.1248,-961.50882)">
      <path
         style="opacity:1;fill:#fefdf8"
         d="m 726.5,514.5 c 8.333,0 16.667,0 25,0 29.162,0.998 58.495,1.331 88,1 0.249,26.68 -0.085,53.347 -1,80 -37.333,0 -74.667,0 -112,0 -0.084,-17.339 -0.417,-34.673 -1,-52 -0.306,-9.75 0.027,-19.416 1,-29 z"
         id="path3608"
         inkscape:connector-curvature="0" />
    </g>
    <g
       style="clip-rule:evenodd;fill-rule:evenodd;image-rendering:optimizeQuality;shape-rendering:geometricPrecision;text-rendering:geometricPrecision"
       id="g3622"
       transform="matrix(2.4709498,0,0,2.4709498,-1680.1248,-961.50882)">
      <path
         style="opacity:1;fill:#fdf6ab"
         d="m 726.5,514.5 c -0.973,9.584 -1.306,19.25 -1,29 -0.666,-4.655 -0.999,-9.488 -1,-14.5 0.006,-5.216 0.673,-10.049 2,-14.5 z"
         id="path3624"
         inkscape:connector-curvature="0" />
    </g>
    <g
       style="clip-rule:evenodd;fill-rule:evenodd;image-rendering:optimizeQuality;shape-rendering:geometricPrecision;text-rendering:geometricPrecision"
       id="g3626"
       transform="matrix(2.4709498,0,0,2.4709498,-1680.1248,-961.50882)">
      <path
         style="opacity:1;fill:#fef9d9"
         d="m 822.5,523.5 c -13.483,-1.333 -27.317,-1.999 -41.5,-2 -14.004,0 -27.837,0.333 -41.5,1 -0.543,-0.06 -0.876,-0.393 -1,-1 1.491,-0.744 2.991,-1.41 4.5,-2 26.759,0.995 53.592,1.328 80.5,1 0.237,1.291 -0.096,2.291 -1,3 z"
         id="path3628"
         inkscape:connector-curvature="0" />
    </g>
    <g
       style="clip-rule:evenodd;fill-rule:evenodd;image-rendering:optimizeQuality;shape-rendering:geometricPrecision;text-rendering:geometricPrecision"
       id="g3638"
       transform="matrix(2.4709498,0,0,2.4709498,-1680.1248,-961.50882)">
      <path
         style="opacity:1;fill:#f8ed35"
         d="m 822.5,523.5 c -12.3,14.967 -25.633,28.967 -40,42 -14.688,-14.021 -29.021,-28.354 -43,-43 13.663,-0.667 27.496,-1 41.5,-1 14.183,10e-4 28.017,0.667 41.5,2 z"
         id="path3640"
         inkscape:connector-curvature="0" />
    </g>
    <g
       style="clip-rule:evenodd;fill-rule:evenodd;image-rendering:optimizeQuality;shape-rendering:geometricPrecision;text-rendering:geometricPrecision"
       id="g3642"
       transform="matrix(2.4709498,0,0,2.4709498,-1680.1248,-961.50882)">
      <path
         style="opacity:1;fill:#f7f588"
         d="m 734.5,530.5 c -1.986,16.634 -2.652,33.634 -2,51 -0.997,-17.159 -1.33,-34.492 -1,-52 1.291,-0.237 2.291,0.096 3,1 z"
         id="path3644"
         inkscape:connector-curvature="0" />
    </g>
    <g
       style="clip-rule:evenodd;fill-rule:evenodd;image-rendering:optimizeQuality;shape-rendering:geometricPrecision;text-rendering:geometricPrecision"
       id="g3646"
       transform="matrix(2.4709498,0,0,2.4709498,-1680.1248,-961.50882)">
      <path
         style="opacity:1;fill:#f8ed34"
         d="m 828.5,528.5 c 0.996,-0.086 1.829,0.248 2.5,1 0.237,15.846 0.737,31.68 1.5,47.5 0.077,2.051 -0.423,3.884 -1.5,5.5 -9.382,-8.88 -18.215,-18.213 -26.5,-28 8.44,-8.433 16.44,-17.099 24,-26 z"
         id="path3648"
         inkscape:connector-curvature="0" />
    </g>
    <g
       style="clip-rule:evenodd;fill-rule:evenodd;image-rendering:optimizeQuality;shape-rendering:geometricPrecision;text-rendering:geometricPrecision"
       id="g3654"
       transform="matrix(2.4709498,0,0,2.4709498,-1680.1248,-961.50882)">
      <path
         style="opacity:1;fill:#f8ed36"
         d="m 734.5,530.5 c 8.376,8.374 16.376,17.04 24,26 -2.397,4.287 -5.397,8.12 -9,11.5 -4.967,3.966 -9.634,8.299 -14,13 -0.948,0.483 -1.948,0.649 -3,0.5 -0.652,-17.366 0.014,-34.366 2,-51 z"
         id="path3656"
         inkscape:connector-curvature="0" />
    </g>
    <g
       style="clip-rule:evenodd;fill-rule:evenodd;image-rendering:optimizeQuality;shape-rendering:geometricPrecision;text-rendering:geometricPrecision"
       id="g3670"
       transform="matrix(2.4709498,0,0,2.4709498,-1680.1248,-961.50882)">
      <path
         style="opacity:1;fill:#f8ec34"
         d="m 823.5,588.5 c -26.828,0.998 -53.828,1.331 -81,1 -2.186,-0.011 -3.019,-1.011 -2.5,-3 8.014,-8.181 16.181,-16.181 24.5,-24 4.463,3.632 8.463,7.799 12,12.5 1.51,0.85 3.01,1.683 4.5,2.5 5.466,-4.343 10.633,-9.176 15.5,-14.5 1,-0.667 2,-0.667 3,0 8.571,8.068 16.571,16.568 24,25.5 z"
         id="path3672"
         inkscape:connector-curvature="0" />
    </g>
    <g
       style="clip-rule:evenodd;fill-rule:evenodd;image-rendering:optimizeQuality;shape-rendering:geometricPrecision;text-rendering:geometricPrecision"
       id="g3674"
       transform="matrix(2.4709498,0,0,2.4709498,-1680.1248,-961.50882)">
      <path
         style="opacity:1;fill:#f9f275"
         d="m 823.5,588.5 c 0.543,0.06 0.876,0.393 1,1 -27.497,1.329 -54.83,1.329 -82,0 27.172,0.331 54.172,-0.002 81,-1 z"
         id="path3676"
         inkscape:connector-curvature="0" />
    </g>
    <g
       style="clip-rule:evenodd;fill-rule:evenodd;image-rendering:optimizeQuality;shape-rendering:geometricPrecision;text-rendering:geometricPrecision"
       id="g3678"
       transform="matrix(2.4709498,0,0,2.4709498,-1680.1248,-961.50882)">
      <path
         style="opacity:1;fill:#fbf488"
         d="m 751.5,514.5 c 29.667,0 59.333,0 89,0 0.251,27.347 -0.082,54.68 -1,82 -37.837,0.332 -75.504,-0.002 -113,-1 37.333,0 74.667,0 112,0 0.915,-26.653 1.249,-53.32 1,-80 -29.505,0.331 -58.838,-0.002 -88,-1 z"
         id="path3680"
         inkscape:connector-curvature="0" />
    </g>
  </g>
</svg>
