<?xml version="1.0" encoding="UTF-8" standalone="no"?>
<svg
   xmlns:dc="http://purl.org/dc/elements/1.1/"
   xmlns:cc="http://creativecommons.org/ns#"
   xmlns:rdf="http://www.w3.org/1999/02/22-rdf-syntax-ns#"
   xmlns:svg="http://www.w3.org/2000/svg"
   xmlns="http://www.w3.org/2000/svg"
   xmlns:sodipodi="http://sodipodi.sourceforge.net/DTD/sodipodi-0.dtd"
   xmlns:inkscape="http://www.inkscape.org/namespaces/inkscape"
   version="1.1"
   width="203"
   height="203"
   style="clip-rule:evenodd;fill-rule:evenodd;image-rendering:optimizeQuality;shape-rendering:geometricPrecision;text-rendering:geometricPrecision"
   id="svg3336"
   inkscape:version="0.91 r13725"
   sodipodi:docname="rss.svg">
  <metadata
     id="metadata3710">
    <rdf:RDF>
      <cc:Work
         rdf:about="">
        <dc:format>image/svg+xml</dc:format>
        <dc:type
           rdf:resource="http://purl.org/dc/dcmitype/StillImage" />
        <dc:title />
      </cc:Work>
    </rdf:RDF>
  </metadata>
  <defs
     id="defs3708" />
  <sodipodi:namedview
     pagecolor="#ffffff"
     bordercolor="#666666"
     borderopacity="1"
     objecttolerance="10"
     gridtolerance="10"
     guidetolerance="10"
     inkscape:pageopacity="0"
     inkscape:pageshadow="2"
     inkscape:window-width="1459"
     inkscape:window-height="951"
     id="namedview3706"
     showgrid="false"
     inkscape:zoom="3.0735575"
     inkscape:cx="141.77403"
     inkscape:cy="105.18545"
     inkscape:window-x="39"
     inkscape:window-y="26"
     inkscape:window-maximized="0"
     inkscape:current-layer="layer5" />
  <g
     inkscape:groupmode="layer"
     id="layer5"
     inkscape:label="Layer 5"
     style="display:inline"
     transform="translate(0,-457)">
    <g
       style="clip-rule:evenodd;fill-rule:evenodd;image-rendering:optimizeQuality;shape-rendering:geometricPrecision;text-rendering:geometricPrecision"
       id="g3462"
       transform="translate(-1.9521353,230.20159)">
      <path
         style="opacity:1;fill:#df5b38"
         d="m 202.5,309.5 c 0.866,9.973 1.199,19.973 1,30 -1.115,6.686 -2.448,13.353 -4,20 -10.251,29.174 -29.585,49.841 -58,62 C 101.278,436.154 65.2776,429.321 33.5,401 3.42128,368.61 -4.41206,331.444 10,289.5 33.13,242.18 70.9634,222.014 123.5,229 c 43.087,10.585 69.42,37.419 79,80.5 z"
         id="path3464"
         inkscape:connector-curvature="0" />
    </g>
    <g
       style="clip-rule:evenodd;fill-rule:evenodd;image-rendering:optimizeQuality;shape-rendering:geometricPrecision;text-rendering:geometricPrecision"
       id="g3474"
       transform="translate(-1.9521353,230.20159)">
      <path
         style="opacity:1;fill:#fdf9f8"
         d="m 140.5,367.5 c 0.427,-5.614 -0.24,-10.947 -2,-16 -6.92,-32.762 -26.587,-53.928 -59,-63.5 -1.9727,-0.495 -3.9727,-0.662 -6,-0.5 -5.0531,-1.76 -10.3864,-2.427 -16,-2 -3.7947,-3.45 -4.9614,-7.784 -3.5,-13 0.8333,-0.833 1.6667,-1.667 2.5,-2.5 38.163,-0.457 67.33,15.376 87.5,47.5 8.199,15.708 12.199,32.375 12,50 -2.914,4.876 -7.08,6.542 -12.5,5 -1.263,-1.529 -2.263,-3.195 -3,-5 z"
         id="path3476"
         inkscape:connector-curvature="0" />
    </g>
    <g
       style="clip-rule:evenodd;fill-rule:evenodd;image-rendering:optimizeQuality;shape-rendering:geometricPrecision;text-rendering:geometricPrecision"
       id="g3486"
       transform="translate(-1.9521353,230.20159)">
      <path
         style="opacity:1;fill:#ec9180"
         d="m 57.5,285.5 c 5.6136,-0.427 10.9469,0.24 16,2 -5.5092,-0.375 -10.8425,-1.042 -16,-2 z"
         id="path3488"
         inkscape:connector-curvature="0" />
    </g>
    <g
       style="clip-rule:evenodd;fill-rule:evenodd;image-rendering:optimizeQuality;shape-rendering:geometricPrecision;text-rendering:geometricPrecision"
       id="g3502"
       transform="translate(-1.9521353,230.20159)">
      <path
         style="opacity:1;fill:#fdf9f7"
         d="m 57.5,298.5 c 34.1344,0.623 56.634,16.956 67.5,49 1.69,7.624 1.857,15.291 0.5,23 -4.909,4.307 -9.409,3.974 -13.5,-1 -0.074,-15.983 -5.574,-29.816 -16.5,-41.5 -11.9911,-8.497 -25.3244,-13.331 -40,-14.5 -4.4301,-5.745 -3.7634,-10.745 2,-15 z"
         id="path3504"
         inkscape:connector-curvature="0" />
    </g>
    <g
       style="clip-rule:evenodd;fill-rule:evenodd;image-rendering:optimizeQuality;shape-rendering:geometricPrecision;text-rendering:geometricPrecision"
       id="g3514"
       transform="translate(-1.9521353,230.20159)">
      <path
         style="opacity:1;fill:#e99481"
         d="m 202.5,309.5 c 0.79,1.109 1.29,2.442 1.5,4 0.824,8.843 0.657,17.51 -0.5,26 0.199,-10.027 -0.134,-20.027 -1,-30 z"
         id="path3516"
         inkscape:connector-curvature="0" />
    </g>
    <g
       style="clip-rule:evenodd;fill-rule:evenodd;image-rendering:optimizeQuality;shape-rendering:geometricPrecision;text-rendering:geometricPrecision"
       id="g3518"
       transform="translate(-1.9521353,230.20159)">
      <path
         style="opacity:1;fill:#fdfbfb"
         d="m 79.5,370.5 c -4.6191,0.814 -9.2858,1.147 -14,1 -6.5861,-2.795 -10.5861,-7.795 -12,-15 -0.0745,-4.481 0.5921,-8.814 2,-13 5.9127,-8.652 13.9127,-11.152 24,-7.5 11.6378,6.898 14.1378,16.398 7.5,28.5 -2.0865,2.594 -4.5865,4.594 -7.5,6 z"
         id="path3520"
         inkscape:connector-curvature="0" />
    </g>
    <g
       style="clip-rule:evenodd;fill-rule:evenodd;image-rendering:optimizeQuality;shape-rendering:geometricPrecision;text-rendering:geometricPrecision"
       id="g3534"
       transform="translate(-1.9521353,230.20159)">
      <path
         style="opacity:1;fill:#f1bbac"
         d="m 55.5,343.5 c -1.4079,4.186 -2.0745,8.519 -2,13 -1.5464,-4.619 -0.8797,-8.952 2,-13 z"
         id="path3536"
         inkscape:connector-curvature="0" />
    </g>
    <g
       style="clip-rule:evenodd;fill-rule:evenodd;image-rendering:optimizeQuality;shape-rendering:geometricPrecision;text-rendering:geometricPrecision"
       id="g3542"
       transform="translate(-1.9521353,230.20159)">
      <path
         style="opacity:1;fill:#eda08a"
         d="m 138.5,351.5 c 1.76,5.053 2.427,10.386 2,16 -0.958,-5.158 -1.625,-10.491 -2,-16 z"
         id="path3544"
         inkscape:connector-curvature="0" />
    </g>
    <g
       style="clip-rule:evenodd;fill-rule:evenodd;image-rendering:optimizeQuality;shape-rendering:geometricPrecision;text-rendering:geometricPrecision"
       id="g3546"
       transform="translate(-1.9521353,230.20159)">
      <path
         style="opacity:1;fill:#f4b9aa"
         d="m 79.5,370.5 c -2.3066,1.547 -4.9733,2.213 -8,2 -2.1965,-0.005 -4.1965,-0.338 -6,-1 4.7142,0.147 9.3809,-0.186 14,-1 z"
         id="path3548"
         inkscape:connector-curvature="0" />
    </g>
  </g>
</svg>
