<?xml version="1.0" encoding="UTF-8" standalone="no"?>
<svg
   xmlns:dc="http://purl.org/dc/elements/1.1/"
   xmlns:cc="http://creativecommons.org/ns#"
   xmlns:rdf="http://www.w3.org/1999/02/22-rdf-syntax-ns#"
   xmlns:svg="http://www.w3.org/2000/svg"
   xmlns="http://www.w3.org/2000/svg"
   xmlns:sodipodi="http://sodipodi.sourceforge.net/DTD/sodipodi-0.dtd"
   xmlns:inkscape="http://www.inkscape.org/namespaces/inkscape"
   version="1.1"
   width="500"
   height="500"
   style="clip-rule:evenodd;fill-rule:evenodd;image-rendering:optimizeQuality;shape-rendering:geometricPrecision;text-rendering:geometricPrecision"
   id="svg3336"
   inkscape:version="0.91 r13725"
   sodipodi:docname="twitter.svg">
  <metadata
     id="metadata3710">
    <rdf:RDF>
      <cc:Work
         rdf:about="">
        <dc:format>image/svg+xml</dc:format>
        <dc:type
           rdf:resource="http://purl.org/dc/dcmitype/StillImage" />
        <dc:title></dc:title>
      </cc:Work>
    </rdf:RDF>
  </metadata>
  <defs
     id="defs3708" />
  <sodipodi:namedview
     pagecolor="#ffffff"
     bordercolor="#666666"
     borderopacity="1"
     objecttolerance="10"
     gridtolerance="10"
     guidetolerance="10"
     inkscape:pageopacity="0"
     inkscape:pageshadow="2"
     inkscape:window-width="1459"
     inkscape:window-height="951"
     id="namedview3706"
     showgrid="false"
     inkscape:zoom="1.0866667"
     inkscape:cx="230.6771"
     inkscape:cy="270.04269"
     inkscape:window-x="39"
     inkscape:window-y="26"
     inkscape:window-maximized="0"
     inkscape:current-layer="layer2" />
  <g
     inkscape:groupmode="layer"
     id="layer2"
     inkscape:label="Layer 2"
     style="display:inline"
     transform="translate(0,-160)">
    <g
       style="clip-rule:evenodd;fill-rule:evenodd;image-rendering:optimizeQuality;shape-rendering:geometricPrecision;text-rendering:geometricPrecision"
       id="g3426"
       transform="matrix(2.4687426,0,0,2.4687426,-542.22348,162.62222)">
      <path
         style="opacity:1;fill:#29aae1"
         d="m 305.5,-0.5 c 8.333,0 16.667,0 25,0 35.709,4.61539 62.543,22.6154 80.5,54 21.235,51.128 10.735,94.295 -31.5,129.5 -36.318,22.918 -73.318,24.251 -111,4 C 232.307,162.099 216.473,127.599 221,83.5 231.719,37.9481 259.885,9.94811 305.5,-0.5 Z"
         id="path3428"
         inkscape:connector-curvature="0" />
    </g>
    <g
       style="clip-rule:evenodd;fill-rule:evenodd;image-rendering:optimizeQuality;shape-rendering:geometricPrecision;text-rendering:geometricPrecision"
       id="g3430"
       transform="matrix(2.4687426,0,0,2.4687426,-542.22348,162.62222)">
      <path
         style="opacity:1;fill:#fcfdfd"
         d="m 277.5,52.5 c 6.472,8.6379 14.139,16.1379 23,22.5 7.497,4.2484 15.497,7.0817 24,8.5 0.044,-12.2563 5.711,-20.7563 17,-25.5 11.285,-2.793 20.619,0.207 28,9 4.925,0.7509 9.591,-0.0824 14,-2.5 1.083,0.865 1.249,1.865 0.5,3 -2.537,2.872 -5.37,5.372 -8.5,7.5 3.836,0.3057 7.503,0.4724 11,0.5 -3.41,3.7379 -7.41,6.7379 -12,9 -6.673,39.512 -29.84,61.179 -69.5,65 -16.783,-0.818 -31.95,-6.152 -45.5,-16 6.543,0.031 13.21,-0.136 20,-0.5 5.561,-0.643 10.561,-2.643 15,-6 -9.431,-2.931 -15.765,-9.097 -19,-18.5 3.25,-0.308 6.583,-0.475 10,-0.5 -10.838,-5.51 -16.172,-14.3434 -16,-26.5 3.055,1.0236 6.055,2.3569 9,4 0.333,-0.3333 0.667,-0.6667 1,-1 -8.337,-10.3313 -9.003,-20.998 -2,-32 z"
         id="path3432"
         inkscape:connector-curvature="0" />
    </g>
  </g>
</svg>
